<svg xmlns="http://www.w3.org/2000/svg" version="1.1" xmlns:xlink="http://www.w3.org/1999/xlink" width="512" height="512" x="0" y="0" viewBox="0 0 100 100" style="enable-background:new 0 0 512 512" xml:space="preserve" class=""><g><path d="M40 10H16.667C13.001 10 10 13 10 16.667V40c0 3.667 3.001 6.667 6.667 6.667H40c3.665 0 6.667-3 6.667-6.667V16.667C46.667 13 43.665 10 40 10zm0 30H16.667V16.667H40zM40 53.334H16.667C13.001 53.334 10 56.335 10 60v23.333C10 86.999 13.001 90 16.667 90H40c3.665 0 6.667-3.001 6.667-6.667V60c0-3.665-3.002-6.666-6.667-6.666zm0 29.999H16.667V60H40zM53.333 10H70v6.667H53.333zM53.333 36.667h23.334v6.667H53.333zM53.333 23.333H90V30H53.333zM53.333 53.334H90V60H53.333zM53.333 80h23.334v6.667H53.333zM53.333 66.667H70v6.666H53.333z" fill="#1da2d8" opacity="1" data-original="#000000" class=""></path></g></svg>