<svg width="154" height="101" viewBox="0 0 154 101" fill="none" xmlns="http://www.w3.org/2000/svg">
<path d="M3.30494 86.7271H-5.72073e-05L6.01737 69.6346H9.83982L15.8656 86.7271H12.5606L7.99536 73.1399H7.86183L3.30494 86.7271ZM3.41344 80.0253H12.4271V82.5124H3.41344V80.0253ZM21.8773 86.7271V69.6346H28.4205C29.6557 69.6346 30.6822 69.8293 31.5001 70.2188C32.3236 70.6027 32.9384 71.1285 33.3446 71.7962C33.7563 72.4639 33.9622 73.2206 33.9622 74.0663C33.9622 74.7618 33.8287 75.3571 33.5616 75.8523C33.2945 76.342 32.9356 76.7398 32.485 77.0458C32.0343 77.3518 31.5307 77.5716 30.9743 77.7051V77.872C31.5808 77.9054 32.1623 78.0918 32.7187 78.4312C33.2806 78.7651 33.7396 79.238 34.0957 79.85C34.4518 80.4621 34.6299 81.2021 34.6299 82.0701C34.6299 82.9547 34.4157 83.7504 33.9872 84.457C33.5588 85.1581 32.9134 85.7117 32.051 86.1178C31.1886 86.524 30.1036 86.7271 28.7961 86.7271H21.8773ZM24.9736 84.1399H28.3036C29.4276 84.1399 30.2371 83.9256 30.7323 83.4972C31.2331 83.0632 31.4835 82.5068 31.4835 81.828C31.4835 81.3217 31.3583 80.8655 31.1079 80.4593C30.8575 80.0476 30.5014 79.7248 30.0396 79.4912C29.5778 79.2519 29.027 79.1323 28.3871 79.1323H24.9736V84.1399ZM24.9736 76.9039H28.0366C28.5707 76.9039 29.052 76.8065 29.4804 76.6118C29.9088 76.4115 30.2455 76.1305 30.4903 75.7689C30.7407 75.4016 30.8659 74.9677 30.8659 74.4669C30.8659 73.8048 30.6322 73.2595 30.1648 72.8311C29.703 72.4027 29.0158 72.1885 28.1033 72.1885H24.9736V76.9039ZM43.2789 86.7271H39.9739L45.9913 69.6346H49.8137L55.8395 86.7271H52.5345L47.9693 73.1399H47.8358L43.2789 86.7271ZM43.3874 80.0253H52.401V82.5124H43.3874V80.0253ZM61.8512 86.7271V69.6346H64.9475V76.8705H72.8678V69.6346H75.9725V86.7271H72.8678V79.4661H64.9475V86.7271H61.8512ZM94.0921 69.6346V72.2302H86.1968V86.7271H83.1005V69.6346H94.0921ZM100.6 86.7271H97.2954L103.313 69.6346H107.135L113.161 86.7271H109.856L105.291 73.1399H105.157L100.6 86.7271ZM100.709 80.0253H109.722V82.5124H100.709V80.0253ZM119.173 86.7271V69.6346H125.582C126.895 69.6346 127.997 69.8794 128.887 70.369C129.783 70.8587 130.459 71.5319 130.915 72.3888C131.377 73.24 131.608 74.2082 131.608 75.2931C131.608 76.3892 131.377 77.3629 130.915 78.2142C130.454 79.0655 129.772 79.736 128.871 80.2256C127.969 80.7097 126.859 80.9517 125.541 80.9517H121.293V78.4062H125.123C125.891 78.4062 126.52 78.2726 127.01 78.0056C127.499 77.7385 127.861 77.3713 128.094 76.9039C128.334 76.4365 128.453 75.8996 128.453 75.2931C128.453 74.6867 128.334 74.1525 128.094 73.6907C127.861 73.2289 127.496 72.87 127.001 72.6141C126.512 72.3526 125.88 72.2218 125.107 72.2218H122.269V86.7271H119.173ZM136.948 90.85V84.1983H138.091C138.475 83.8923 138.834 83.461 139.168 82.9047C139.502 82.3483 139.786 81.586 140.019 80.6179C140.253 79.6497 140.414 78.3978 140.503 76.8622L140.954 69.6346H151.879V84.1983H153.782V90.8333H150.811V86.7271H139.919V90.85H136.948ZM141.697 84.1983H148.908V72.2302H143.742L143.474 76.8622C143.402 78.0251 143.285 79.0655 143.124 79.9836C142.963 80.9016 142.76 81.7112 142.515 82.4122C142.27 83.1077 141.997 83.7031 141.697 84.1983Z" fill="#064273"/>
<path d="M9.06625 97.9411V91.6957H11.5302C12.0039 91.6957 12.4075 91.7862 12.7409 91.9671C13.0743 92.146 13.3284 92.3951 13.5032 92.7143C13.6801 93.0314 13.7685 93.3974 13.7685 93.8121C13.7685 94.2268 13.6791 94.5927 13.5002 94.9099C13.3213 95.227 13.0621 95.474 12.7226 95.6509C12.3851 95.8278 11.9765 95.9162 11.4967 95.9162H9.9262V94.8581H11.2832C11.5373 94.8581 11.7467 94.8143 11.9114 94.7269C12.0781 94.6375 12.2021 94.5145 12.2834 94.3579C12.3668 94.1994 12.4085 94.0174 12.4085 93.8121C12.4085 93.6047 12.3668 93.4238 12.2834 93.2693C12.2021 93.1127 12.0781 92.9918 11.9114 92.9064C11.7447 92.819 11.5333 92.7753 11.2771 92.7753H10.3867V97.9411H9.06625ZM18.0715 94.0042H19.5597C20.0557 94.0042 20.4826 94.0845 20.8404 94.2451C21.2003 94.4037 21.4778 94.6283 21.673 94.919C21.8681 95.2098 21.9647 95.5523 21.9627 95.9467C21.9647 96.3391 21.8681 96.6857 21.673 96.9866C21.4778 97.2854 21.2003 97.5192 20.8404 97.688C20.4826 97.8567 20.0557 97.9411 19.5597 97.9411H17.2268V91.6957H18.5442V96.8799H19.5597C19.7975 96.8799 19.9978 96.8372 20.1604 96.7518C20.3231 96.6644 20.446 96.5495 20.5294 96.4072C20.6148 96.2628 20.6565 96.1053 20.6544 95.9345C20.6565 95.6865 20.5629 95.4771 20.3739 95.3063C20.1868 95.1335 19.9154 95.0471 19.5597 95.0471H18.0715V94.0042ZM23.7893 91.6957V97.9411H22.4719V91.6957H23.7893ZM27.4519 97.9411V91.6957H31.5961V92.7844H28.7723V94.0042H29.7878C30.2818 94.0042 30.7077 94.0845 31.0655 94.2451C31.4253 94.4037 31.7028 94.6283 31.898 94.919C32.0932 95.2098 32.1908 95.5523 32.1908 95.9467C32.1908 96.3391 32.0932 96.6857 31.898 96.9866C31.7028 97.2854 31.4253 97.5192 31.0655 97.688C30.7077 97.8567 30.2818 97.9411 29.7878 97.9411H27.4519ZM28.7723 96.8799H29.7878C30.0236 96.8799 30.2228 96.8372 30.3855 96.7518C30.5481 96.6644 30.6711 96.5495 30.7545 96.4072C30.8398 96.2628 30.8825 96.1053 30.8825 95.9345C30.8825 95.6865 30.788 95.4771 30.5989 95.3063C30.4119 95.1335 30.1415 95.0471 29.7878 95.0471H28.7723V96.8799ZM35.6216 97.9411V91.6957H36.942V94.2726H39.6225V91.6957H40.9399V97.9411H39.6225V95.3612H36.942V97.9411H35.6216ZM45.6812 97.9411H44.2663L46.4222 91.6957H48.1239L50.2768 97.9411H48.8618L47.2974 93.1229H47.2487L45.6812 97.9411ZM45.5928 95.4862H48.935V96.517H45.5928V95.4862ZM58.3985 97.9411H57.0811V92.7753H56.1906C55.9365 92.7753 55.7251 92.8129 55.5564 92.8881C55.3896 92.9613 55.2646 93.069 55.1813 93.2113C55.0979 93.3536 55.0562 93.5285 55.0562 93.7358C55.0562 93.9412 55.0979 94.113 55.1813 94.2512C55.2646 94.3894 55.3896 94.4931 55.5564 94.5623C55.7231 94.6314 55.9325 94.6659 56.1845 94.6659H57.6178V95.7272H55.9711C55.4933 95.7272 55.0847 95.6479 54.7452 95.4893C54.4057 95.3307 54.1465 95.103 53.9676 94.8062C53.7887 94.5074 53.6992 94.1506 53.6992 93.7358C53.6992 93.3231 53.7866 92.9643 53.9615 92.6594C54.1383 92.3524 54.3935 92.1156 54.7269 91.9488C55.0623 91.7801 55.4659 91.6957 55.9375 91.6957H58.3985V97.9411ZM55.0288 95.099H56.4529L54.9343 97.9411H53.4766L55.0288 95.099ZM71.9324 91.6957V97.9411H70.6272V92.7692H68.1022V97.9411H66.797V91.6957H71.9324ZM75.7657 97.9411V91.6957H78.2297C78.7034 91.6957 79.1069 91.7862 79.4403 91.9671C79.7738 92.146 80.0279 92.3951 80.2027 92.7143C80.3796 93.0314 80.468 93.3974 80.468 93.8121C80.468 94.2268 80.3786 94.5927 80.1997 94.9099C80.0208 95.227 79.7616 95.474 79.4221 95.6509C79.0846 95.8278 78.6759 95.9162 78.1962 95.9162H76.6257V94.8581H77.9827C78.2368 94.8581 78.4462 94.8143 78.6109 94.7269C78.7776 94.6375 78.9016 94.5145 78.9829 94.3579C79.0663 94.1994 79.108 94.0174 79.108 93.8121C79.108 93.6047 79.0663 93.4238 78.9829 93.2693C78.9016 93.1127 78.7776 92.9918 78.6109 92.9064C78.4442 92.819 78.2328 92.7753 77.9766 92.7753H77.0861V97.9411H75.7657ZM89.641 94.8184C89.641 95.4995 89.5119 96.0789 89.2537 96.5566C88.9976 97.0344 88.6479 97.3993 88.2047 97.6514C87.7636 97.9014 87.2675 98.0265 86.7166 98.0265C86.1616 98.0265 85.6635 97.9004 85.2223 97.6483C84.7812 97.3962 84.4325 97.0313 84.1763 96.5536C83.9202 96.0758 83.7921 95.4974 83.7921 94.8184C83.7921 94.1374 83.9202 93.558 84.1763 93.0802C84.4325 92.6025 84.7812 92.2385 85.2223 91.9885C85.6635 91.7364 86.1616 91.6104 86.7166 91.6104C87.2675 91.6104 87.7636 91.7364 88.2047 91.9885C88.6479 92.2385 88.9976 92.6025 89.2537 93.0802C89.5119 93.558 89.641 94.1374 89.641 94.8184ZM88.3023 94.8184C88.3023 94.3773 88.2362 94.0052 88.1041 93.7023C87.974 93.3994 87.79 93.1697 87.5521 93.0131C87.3143 92.8566 87.0357 92.7783 86.7166 92.7783C86.3974 92.7783 86.1189 92.8566 85.881 93.0131C85.6431 93.1697 85.4581 93.3994 85.326 93.7023C85.1959 94.0052 85.1308 94.3773 85.1308 94.8184C85.1308 95.2596 85.1959 95.6316 85.326 95.9345C85.4581 96.2374 85.6431 96.4672 85.881 96.6237C86.1189 96.7802 86.3974 96.8585 86.7166 96.8585C87.0357 96.8585 87.3143 96.7802 87.5521 96.6237C87.79 96.4672 87.974 96.2374 88.1041 95.9345C88.2362 95.6316 88.3023 95.2596 88.3023 94.8184ZM92.8568 99.4475V96.889H93.2807C93.4251 96.7853 93.5572 96.6389 93.6772 96.4499C93.7971 96.2588 93.8998 95.9955 93.9852 95.6601C94.0705 95.3226 94.1315 94.8814 94.1681 94.3366L94.345 91.6957H98.477V96.889H99.1601V99.4414H97.8915V97.9411H94.1254V99.4475H92.8568ZM94.8055 96.889H97.2085V92.7844H95.5343L95.4367 94.3366C95.4103 94.7493 95.3666 95.1152 95.3056 95.4344C95.2466 95.7536 95.1744 96.0331 95.0891 96.273C95.0057 96.5109 94.9112 96.7162 94.8055 96.889ZM103.213 98.0265V96.953H103.552C103.72 96.953 103.856 96.9327 103.96 96.8921C104.064 96.8494 104.146 96.7874 104.207 96.706C104.27 96.6227 104.323 96.519 104.366 96.395L104.442 96.1907L102.173 91.6957H103.539L105.009 94.7696L106.238 91.6957H107.586L105.433 96.7152C105.329 96.9469 105.206 97.1624 105.064 97.3617C104.924 97.5609 104.744 97.7215 104.524 97.8435C104.305 97.9655 104.024 98.0265 103.683 98.0265H103.213ZM114.655 97.9411L112.648 95.2789H112.197V97.9411H110.877V91.6957H112.197V94.1902H112.462L114.536 91.6957H116.18L113.743 94.5927L116.292 97.9411H114.655ZM125.549 96.886L125.473 99.417H124.217V97.9411H123.778V96.886H125.549ZM119.533 97.9411V91.6957H120.801V96.8799H123.399V91.6957H124.683V97.9411H119.533ZM128.927 91.6957H130.244V95.6235H130.296L132.995 91.6957H134.15V97.9411H132.83V94.0103H132.784L130.07 97.9411H128.927V91.6957ZM142.611 97.9411H141.294V92.7753H140.404C140.149 92.7753 139.938 92.8129 139.769 92.8881C139.603 92.9613 139.478 93.069 139.394 93.2113C139.311 93.3536 139.269 93.5285 139.269 93.7358C139.269 93.9412 139.311 94.113 139.394 94.2512C139.478 94.3894 139.603 94.4931 139.769 94.5623C139.936 94.6314 140.145 94.6659 140.397 94.6659H141.831V95.7272H140.184C139.706 95.7272 139.298 95.6479 138.958 95.4893C138.619 95.3307 138.359 95.103 138.181 94.8062C138.002 94.5074 137.912 94.1506 137.912 93.7358C137.912 93.3231 138 92.9643 138.174 92.6594C138.351 92.3524 138.606 92.1156 138.94 91.9488C139.275 91.7801 139.679 91.6957 140.15 91.6957H142.611V97.9411ZM139.242 95.099H140.666L139.147 97.9411H137.69L139.242 95.099Z" fill="#1DA2D8"/>
<path d="M60.7252 57.7837L50.8951 53.603L41.2906 48.9702C35.0762 45.5805 25.0195 39.3211 25.0201 33.4907C25.0201 23.3895 53.2681 13.039 60.8492 9.71725L60.7252 57.7837ZM44.6803 23.2758C42.5589 23.2761 40.8387 24.9962 40.8385 27.1176C40.8386 29.2392 42.5588 30.9592 44.6803 30.9594C46.8019 30.9594 48.522 29.2393 48.5221 27.1176C48.5219 24.9961 46.8018 23.2759 44.6803 23.2758Z" fill="#064273"/>
<ellipse cx="21.6306" cy="19.9995" rx="3.61572" ry="3.50273" fill="#1DA2D8"/>
<ellipse cx="29.54" cy="6.21452" rx="5.87555" ry="6.21452" fill="#1DA2D8"/>
<path d="M70.6688 30.5077H74.9625V56.9476C74.9625 58.0709 74.0519 58.9815 72.9286 58.9815H72.7027C71.5794 58.9815 70.6688 58.0709 70.6688 56.9476V30.5077Z" fill="#1DA2D8"/>
<path d="M69.5387 21.4683C69.5387 21.9675 69.9438 22.3726 70.443 22.3726C70.9421 22.3724 71.3463 21.9674 71.3463 21.4683V11.9771H74.0582V21.4683C74.0582 21.9675 74.4633 22.3726 74.9625 22.3726C75.4617 22.3725 75.8658 21.9675 75.8658 21.4683V11.9771H78.3522V26.2144C78.352 28.7103 76.3285 30.7338 73.8326 30.7339H71.7985C69.3025 30.7339 67.2791 28.7103 67.2789 26.2144V11.9771H69.5387V21.4683Z" fill="#1DA2D8"/>
<path d="M86.2614 30.5077H90.555V56.9476C90.555 58.0709 89.6444 58.9815 88.5212 58.9815H88.2952C87.1719 58.9815 86.2614 58.0709 86.2614 56.9476V30.5077Z" fill="#1DA2D8"/>
<ellipse cx="88.4083" cy="21.1294" rx="5.98854" ry="10.0562" fill="#1DA2D8"/>
<path d="M117.786 35.0273C117.786 55.0268 98.3512 58.9815 98.3512 58.9815V10.8472C98.3512 10.8472 117.785 15.0278 117.786 35.0273Z" fill="#064273"/>
<path d="M135.751 12.8308C132.378 18.0662 129.086 27.7866 129.085 35.9314C129.086 45.2567 132.762 50.9947 135.751 54.7761V55.2527C134.367 54.6878 133.038 54.1439 131.762 53.5964C131.443 53.4595 131.127 53.3221 130.815 53.1843C130.19 52.9089 129.579 52.631 128.98 52.3474C128.681 52.2056 128.384 52.0628 128.091 51.9177C127.213 51.4828 126.364 51.0312 125.542 50.5535C124.311 49.8367 123.143 49.0604 122.037 48.1882C121.791 47.9944 121.548 47.7962 121.308 47.5925C121.188 47.4907 121.069 47.3874 120.951 47.283C120.714 47.0741 120.48 46.8602 120.25 46.6404C120.134 46.5305 120.02 46.4192 119.906 46.3064C119.678 46.0808 119.454 45.8488 119.232 45.6111C118.899 45.2544 118.573 44.884 118.253 44.4978C118.041 44.2405 117.831 43.9762 117.624 43.7048C117.313 43.2974 117.008 42.8737 116.71 42.4324C116.512 42.1381 116.316 41.8364 116.123 41.5261C115.254 40.13 114.444 38.5672 113.688 36.8025C113.52 36.4103 113.355 36.008 113.193 35.5955C113.112 35.3893 113.031 35.1808 112.951 34.9695C112.791 34.5465 112.633 34.1131 112.479 33.6687C112.402 33.4465 112.325 33.2216 112.25 32.9939L135.751 12.655V12.8308Z" fill="#064273"/>
</svg>
